<?xml version="1.0" encoding="UTF-8" standalone="no"?>
<!-- Created with Inkscape (http://www.inkscape.org/) -->

<svg
   width="284"
   height="40"
   viewBox="0 0 75.141665 10.583333"
   version="1.1"
   id="svg1"
   sodipodi:docname="starmie-demo.svg"
   xmlns:inkscape="http://www.inkscape.org/namespaces/inkscape"
   xmlns:sodipodi="http://sodipodi.sourceforge.net/DTD/sodipodi-0.dtd"
   xmlns="http://www.w3.org/2000/svg"
   xmlns:svg="http://www.w3.org/2000/svg">
  <sodipodi:namedview
     id="namedview1"
     pagecolor="#ffffff"
     bordercolor="#000000"
     borderopacity="0.25"
     inkscape:showpageshadow="2"
     inkscape:pageopacity="0.0"
     inkscape:pagecheckerboard="0"
     inkscape:deskcolor="#d1d1d1" />
  <defs
     id="defs1" />
  <g
     id="layer1">
    <path
       d="m 4.0855333,9.6463208 c 1.904994,0 3.0056571,-1.1535796 3.0056571,-2.4659088 0,-1.1112464 -0.5820814,-1.767411 -1.555745,-2.1589931 L 4.5511985,4.6298368 C 3.8527008,4.354671 3.3552857,4.1853382 3.3552857,3.7514229 c 0,-0.4233319 0.3598322,-0.6561645 0.9419136,-0.6561645 0.6138314,0 1.1006632,0.211666 1.6192449,0.603248 L 6.8583578,2.5131769 C 6.1704434,1.8252624 5.2073631,1.4760135 4.2971993,1.4760135 c -1.6721613,0 -2.8574909,1.05833 -2.8574909,2.3812424 0,1.1429964 0.7725809,1.8309109 1.5980783,2.1589932 L 4.0432001,6.439581 c 0.6773312,0.2857491 1.1112465,0.4339153 1.1112465,0.8889972 0,0.423332 -0.3280823,0.6879145 -1.0265801,0.6879145 -0.6244146,0 -1.3546623,-0.3280823 -1.9155772,-0.8043308 L 1.143376,8.5139078 c 0.8149141,0.7514142 1.9155773,1.132413 2.9421573,1.132413 z m 6.1912197,0 c 0.613831,0 1.047747,-0.1269996 1.365246,-0.2222493 L 11.345666,8.0694092 c -0.148166,0.042333 -0.359832,0.105833 -0.550331,0.105833 -0.444499,0 -0.761998,-0.2645825 -0.761998,-0.9313304 v -2.296576 h 1.418162 V 3.4762571 H 10.033337 V 1.8887622 H 8.4670087 l -0.211666,1.5874949 -0.9207471,0.074083 v 1.3969956 h 0.8149141 v 2.3177426 c 0,1.4287455 0.6138313,2.3812424 2.1272433,2.3812424 z m 3.619477,0 c 0.666748,0 1.227663,-0.3069157 1.725078,-0.7514142 h 0.04233 l 0.137583,0.603248 h 1.534579 V 6.0797489 c 0,-1.8838274 -0.878414,-2.7516579 -2.434159,-2.7516579 -0.941914,0 -1.799161,0.3174989 -2.592909,0.7937474 L 12.9649,5.3600845 c 0.603248,-0.3386656 1.100663,-0.529165 1.576911,-0.529165 0.613832,0 0.867831,0.2857491 0.910164,0.7725809 -2.349492,0.2539992 -3.344322,0.9419136 -3.344322,2.2119096 0,1.0054135 0.677331,1.8309108 1.788577,1.8309108 z m 0.645581,-1.4604953 c -0.391582,0 -0.645581,-0.1693328 -0.645581,-0.5185817 0,-0.423332 0.380999,-0.7619976 1.555745,-0.9207471 V 7.709577 C 15.176809,8.0059094 14.92281,8.1858255 14.541811,8.1858255 Z m 4.243914,1.3123291 h 1.873244 V 6.0585823 c 0.317499,-0.7937475 0.857248,-1.0794966 1.301746,-1.0794966 0.264583,0 0.444499,0.042333 0.656165,0.09525 L 22.934379,3.4550905 C 22.765046,3.3810075 22.563963,3.328091 22.204131,3.328091 c -0.603248,0 -1.269996,0.391582 -1.714494,1.1959128 h -0.04233 L 20.320304,3.4762571 h -1.534579 z m 4.910658,0 h 1.873244 V 5.4765008 c 0.359832,-0.3704155 0.687915,-0.5397483 0.96308,-0.5397483 0.476249,0 0.687915,0.2434159 0.687915,1.0689133 v 3.4924888 h 1.894411 V 5.4765008 c 0.359832,-0.3704155 0.687914,-0.5397483 0.96308,-0.5397483 0.476248,0 0.687914,0.2434159 0.687914,1.0689133 v 3.4924888 h 1.883828 V 5.7728332 c 0,-1.5028286 -0.571499,-2.4447422 -1.883828,-2.4447422 -0.80433,0 -1.365245,0.4656651 -1.883827,0.9948301 C 28.575284,3.6773398 28.067286,3.328091 27.231205,3.328091 c -0.814914,0 -1.333496,0.4127486 -1.830911,0.9101637 h -0.04233 L 25.230962,3.4762571 h -1.534579 z m 10.424557,0 h 1.873244 V 3.4762571 H 34.12094 Z m 0.941914,-6.8579781 c 0.624414,0 1.068913,-0.4021654 1.068913,-0.9630803 0,-0.5714982 -0.444499,-0.97366356 -1.068913,-0.97366356 -0.634998,0 -1.079497,0.40216536 -1.079497,0.97366356 0,0.5609149 0.444499,0.9630803 1.079497,0.9630803 z m 5.175222,7.0061443 c 0.709081,0 1.534579,-0.2434159 2.158993,-0.6879144 L 41.772655,7.8259933 c -0.433916,0.2539992 -0.836081,0.3809988 -1.269996,0.3809988 -0.761998,0 -1.333496,-0.3386656 -1.502829,-1.164163 h 3.534822 c 0.04233,-0.1375829 0.08467,-0.4762485 0.08467,-0.8043307 0,-1.6509948 -0.846664,-2.9104074 -2.582326,-2.9104074 -1.460495,0 -2.85749,1.2064961 -2.85749,3.1644065 0,1.9896604 1.333495,3.1538233 3.058573,3.1538233 z M 38.96808,5.8151664 c 0.127,-0.7196644 0.582082,-1.0477467 1.100663,-1.0477467 0.687915,0 0.952497,0.4444986 0.952497,1.0477467 z m 5.00591,3.6829882 h 2.370659 c 2.296576,0 3.884071,-1.238246 3.884071,-3.9793206 0,-2.7410746 -1.587495,-3.8946543 -3.989904,-3.8946543 H 43.97399 Z M 45.8684,7.9741595 V 3.1270083 h 0.254 c 1.269995,0 2.169576,0.5185816 2.169576,2.3918257 0,1.873244 -0.899581,2.4553255 -2.169576,2.4553255 z m 8.392557,1.6721613 c 0.709081,0 1.534578,-0.2434159 2.158993,-0.6879144 L 55.795535,7.8259933 c -0.433915,0.2539992 -0.836081,0.3809988 -1.269996,0.3809988 -0.761997,0 -1.333496,-0.3386656 -1.502828,-1.164163 h 3.534822 c 0.04233,-0.1375829 0.08467,-0.4762485 0.08467,-0.8043307 0,-1.6509948 -0.846664,-2.9104074 -2.582325,-2.9104074 -1.460495,0 -2.857491,1.2064961 -2.857491,3.1644065 0,1.9896604 1.333496,3.1538233 3.058574,3.1538233 z M 52.990961,5.8151664 c 0.126999,-0.7196644 0.582081,-1.0477467 1.100663,-1.0477467 0.687914,0 0.952497,0.4444986 0.952497,1.0477467 z m 4.857743,3.6829882 h 1.873244 V 5.4765008 c 0.359832,-0.3704155 0.687915,-0.5397483 0.96308,-0.5397483 0.476249,0 0.687915,0.2434159 0.687915,1.0689133 v 3.4924888 h 1.89441 V 5.4765008 c 0.359833,-0.3704155 0.687915,-0.5397483 0.963081,-0.5397483 0.476248,0 0.687914,0.2434159 0.687914,1.0689133 v 3.4924888 h 1.883828 V 5.7728332 c 0,-1.5028286 -0.571499,-2.4447422 -1.883828,-2.4447422 -0.804331,0 -1.365245,0.4656651 -1.883827,0.9948301 C 62.727605,3.6773398 62.219607,3.328091 61.383526,3.328091 c -0.814914,0 -1.333496,0.4127486 -1.830911,0.9101637 h -0.04233 l -0.127,-0.7619976 H 57.848704 Z M 70.88734,9.6463208 c 1.523995,0 2.942157,-1.1641629 2.942157,-3.1538233 0,-2.0002436 -1.418162,-3.1644065 -2.942157,-3.1644065 -1.534579,0 -2.952741,1.1641629 -2.952741,3.1644065 0,1.9896604 1.418162,3.1538233 2.952741,3.1538233 z m 0,-1.5239951 c -0.709081,0 -1.02658,-0.634998 -1.02658,-1.6298282 0,-1.0054134 0.317499,-1.6404114 1.02658,-1.6404114 0.698497,0 1.015996,0.634998 1.015996,1.6404114 0,0.9948302 -0.317499,1.6298282 -1.015996,1.6298282 z"
       id="text1"
       style="font-weight:900;font-size:10.5833px;font-family:'Source Han Sans CN';-inkscape-font-specification:'Source Han Sans CN Heavy';stroke-width:0.264583"
       aria-label="StarmieDemo" />
  </g>
</svg>
